<?xml version="1.0" encoding="UTF-8"?>
<svg id="Capa_1" xmlns="http://www.w3.org/2000/svg" viewBox="0 0 326.83 100">
  <defs>
    <style>
      .cls-1 {
        fill: #9fdeff;
      }

      .cls-2 {
        fill: #bf9dfb;
      }

      .cls-3 {
        fill: #b5e9d3;
      }
    </style>
  </defs>
  <polygon class="cls-2" points="253.28 26.37 207.41 26.37 212.46 13.05 256.87 13.05 253.28 26.37"/>
  <polygon class="cls-1" points="246.59 55.91 200.72 55.91 205.76 42.59 250.18 42.59 246.59 55.91"/>
  <polygon class="cls-3" points="238.55 86.07 192.68 86.07 197.72 72.75 242.14 72.75 238.55 86.07"/>
  <path d="M2.06,86.29L13.44,14.34h11.57l22.56,47.45,7.58-47.45h14.39l-11.47,71.95h-11.47l-22.56-47.55-7.58,47.55H2.06Z"/>
  <path d="M97.06,86.87c-3.69,0-7.07-.31-10.11-.92-3.05-.62-5.67-1.75-7.88-3.4-2.2-1.65-3.89-3.95-5.06-6.9-1.17-2.95-1.75-6.79-1.75-11.52,0-2.27.13-4.77.39-7.49.26-2.72.62-5.48,1.07-8.26,1.1-6.74,2.56-12.35,4.38-16.82,1.81-4.47,4.12-8.01,6.9-10.6,2.79-2.59,6.14-4.44,10.06-5.54,3.92-1.1,8.51-1.65,13.76-1.65,3.56,0,6.86.32,9.87.97,3.01.65,5.64,1.83,7.88,3.55,2.24,1.72,3.97,4.13,5.2,7.24,1.23,3.11,1.85,7.13,1.85,12.06,0,2.08-.13,4.47-.39,7.2-.26,2.72-.65,5.51-1.17,8.36-1.04,7-2.48,12.71-4.33,17.11-1.85,4.41-4.17,7.81-6.95,10.21-2.79,2.4-6.13,4.07-10.02,5.01-3.89.94-8.46,1.41-13.71,1.41ZM99.39,73.84c2.85,0,5.3-.39,7.34-1.17,2.04-.78,3.76-2.06,5.15-3.84,1.39-1.78,2.56-4.11,3.5-7,.94-2.88,1.73-6.43,2.38-10.65.39-2.66.71-5.17.97-7.54.26-2.37.39-4.33.39-5.88,0-3.11-.45-5.45-1.36-7-.91-1.56-2.27-2.63-4.08-3.21-1.82-.58-4.15-.88-7-.88s-5.1.36-7.15,1.07c-2.04.71-3.78,1.93-5.2,3.65-1.43,1.72-2.64,4.1-3.65,7.15-1.01,3.05-1.86,6.97-2.58,11.77-.45,2.59-.81,5.04-1.07,7.34-.26,2.3-.39,4.2-.39,5.69,0,2.79.44,4.94,1.31,6.47.87,1.52,2.25,2.58,4.13,3.16,1.88.58,4.31.88,7.29.88Z"/>
  <path d="M153.06,86.29l9.33-59.02h-19.64l2.04-12.93h53.87l-2.04,12.93h-19.74l-9.33,59.02h-14.49Z"/>
  <path d="M252.85,86.29l30.24-39.48,5.54,12.35-19.74,27.13h-16.04ZM297.68,86.29l-14.29-30.92-19.54-41.03h15.75l14.68,31.79,19.06,40.16h-15.65ZM294.18,54.59l-5.54-12.15,20.61-28.1h16.04l-31.11,40.25Z"/>
</svg>