<?xml version="1.0" encoding="UTF-8"?>
<svg id="Capa_1" xmlns="http://www.w3.org/2000/svg" viewBox="0 0 395.32 73.82">
  <defs>
    <style>
      .cls-1 {
        fill: #b8ddce;
      }

      .cls-2 {
        fill: #a4dbf8;
      }

      .cls-3 {
        fill: #010101;
      }

      .cls-4 {
        fill: #b09ccb;
      }
    </style>
  </defs>
  <polygon class="cls-4" points="74.24 17.45 69.58 17.45 71.3 6.66 75.86 6.66 74.24 17.45"/>
  <polygon class="cls-4" points="323.31 13.32 277.44 13.32 282.49 0 326.91 0 323.31 13.32"/>
  <polygon class="cls-2" points="316.62 42.86 270.75 42.86 275.8 29.54 320.21 29.54 316.62 42.86"/>
  <polygon class="cls-1" points="308.58 73.02 262.71 73.02 267.75 59.7 312.17 59.7 308.58 73.02"/>
  <path class="cls-3" d="M72.09,73.24L83.47,1.29h11.57l22.56,47.45L125.18,1.29h14.39l-11.47,71.95h-11.47l-22.56-47.55-7.58,47.55h-14.39Z"/>
  <path class="cls-3" d="M167.09,73.82c-3.69,0-7.07-.31-10.11-.92-3.05-.62-5.67-1.75-7.88-3.4-2.2-1.65-3.89-3.95-5.06-6.9-1.17-2.95-1.75-6.79-1.75-11.52,0-2.27.13-4.77.39-7.49.26-2.72.62-5.48,1.07-8.26,1.1-6.74,2.56-12.35,4.38-16.82,1.81-4.47,4.12-8.01,6.9-10.6,2.79-2.59,6.14-4.44,10.06-5.54,3.92-1.1,8.51-1.65,13.76-1.65,3.56,0,6.86.32,9.87.97,3.01.65,5.64,1.83,7.88,3.55,2.24,1.72,3.97,4.13,5.2,7.24,1.23,3.11,1.85,7.13,1.85,12.06,0,2.08-.13,4.47-.39,7.2-.26,2.72-.65,5.51-1.17,8.36-1.04,7-2.48,12.71-4.33,17.11-1.85,4.41-4.17,7.81-6.95,10.21-2.79,2.4-6.13,4.07-10.02,5.01-3.89.94-8.46,1.41-13.71,1.41ZM169.42,60.8c2.85,0,5.3-.39,7.34-1.17,2.04-.78,3.76-2.06,5.15-3.84,1.39-1.78,2.56-4.11,3.5-7,.94-2.88,1.73-6.43,2.38-10.65.39-2.66.71-5.17.97-7.54.26-2.37.39-4.33.39-5.88,0-3.11-.45-5.45-1.36-7-.91-1.56-2.27-2.63-4.08-3.21-1.82-.58-4.15-.88-7-.88s-5.1.36-7.15,1.07c-2.04.71-3.78,1.93-5.2,3.65-1.43,1.72-2.64,4.1-3.65,7.15-1.01,3.05-1.86,6.97-2.58,11.77-.45,2.59-.81,5.04-1.07,7.34-.26,2.3-.39,4.2-.39,5.69,0,2.79.44,4.94,1.31,6.47.87,1.52,2.25,2.58,4.13,3.16,1.88.58,4.31.88,7.29.88Z"/>
  <path class="cls-3" d="M223.09,73.24l9.33-59.02h-19.64l2.04-12.93h53.87l-2.04,12.93h-19.74l-9.33,59.02h-14.49Z"/>
  <path class="cls-3" d="M322.88,73.24l30.24-39.48,5.54,12.35-19.74,27.13h-16.04ZM367.71,73.24l-14.29-30.92L333.87,1.29h15.75l14.68,31.79,19.06,40.16h-15.65ZM364.21,41.54l-5.54-12.15,20.61-28.1h16.04l-31.11,40.25Z"/>
  <g>
    <path d="M0,58.98c.19-1.13.39-2.25.57-3.38.13-.79.22-1.59.37-2.38.03-.14.25-.25.39-.36.05-.04.15,0,.23,0,5.04,0,10.09,0,15.13-.01.19,0,.38,0,.64,0-.33,2.56-.65,5.06-.99,7.62-.26,0-.48,0-.7,0-4.99,0-9.97,0-14.96,0-.23,0-.46.01-.69.02,0-.5,0-1,0-1.5Z"/>
    <path d="M6.17,73.82c.6-3.88,1.2-7.71,1.8-11.62h9.3c.47-3.71.92-7.35,1.39-11.06h-8.97c.41-2.67.81-5.28,1.22-7.92h9.19c.53-3.7,1.05-7.35,1.58-11.07h-9.04c.4-2.57.79-5.07,1.19-7.63.24,0,.45,0,.66,0,2.51,0,5.03,0,7.54,0,.44,0,.62-.09.67-.59.25-2.28.58-4.55.87-6.82.15-1.19.29-2.38.44-3.61h-8.46c.57-3.71,1.14-7.36,1.71-11.04h55.46c-3.79,23.79-7.57,47.55-11.36,71.35H6.17ZM29.29,17.13c.25.02.34.03.43.03,8.2,0,16.41,0,24.61,0,.16,0,.37-.02.48-.12.49-.4.96-.83,1.47-1.28-.1-.04-.14-.06-.17-.06-8.3,0-16.6,0-24.9,0-.14,0-.32.03-.42.12-.47.39-.92.8-1.5,1.31ZM27.42,25.14h.78c7.9,0,15.81-.03,23.71.03,1.25,0,1.75-.81,2.64-1.53h-.51c-8.15,0-16.31,0-24.46.01-.24,0-.52.11-.71.26-.46.34-.88.74-1.44,1.23ZM55.51,19.75c-.16-.03-.21-.04-.27-.04-8.26,0-16.53,0-24.79,0-.13,0-.3,0-.38.07-.48.4-.93.82-1.49,1.31.2.02.26.04.33.04,8.25,0,16.49,0,24.74,0,.18,0,.4-.05.53-.16.44-.36.85-.76,1.33-1.21Z"/>
    <path d="M22.64,15.25c-.31,2.35-.62,4.64-.9,6.93-.07.57-.27.78-.89.77-5.04-.07-10.08-.1-15.12-.14-.17,0-.34-.02-.57-.03.14-.94.27-1.85.4-2.75.22-1.44.44-2.87.65-4.31.05-.32.1-.52.51-.52,5.19,0,10.39,0,15.58,0,.09,0,.19.02.34.04Z"/>
    <path d="M20.11,33.91c-.38,2.52-.76,5.01-1.14,7.54H2.97c.13-.94.26-1.86.4-2.78.22-1.44.45-2.87.66-4.31.05-.34.14-.5.53-.49,5.04.01,10.09,0,15.13,0,.13,0,.26.03.43.04Z"/>
  </g>
</svg>