<?xml version="1.0" encoding="UTF-8"?>
<svg id="Capa_1" xmlns="http://www.w3.org/2000/svg" viewBox="0 0 82.15 100">
  <defs>
    <style>
      .cls-1 {
        fill: #bf9dfb;
      }
    </style>
  </defs>
  <polygon class="cls-1" points="77.39 30.5 72.72 30.5 74.44 19.71 79 19.71 77.39 30.5"/>
  <g>
    <path d="M3.14,72.03c.19-1.13.39-2.25.57-3.38.13-.79.22-1.59.37-2.38.03-.14.25-.25.39-.36.05-.04.15,0,.23,0,5.04,0,10.09,0,15.13-.01.19,0,.38,0,.64,0-.33,2.56-.65,5.06-.99,7.62-.26,0-.48,0-.7,0-4.99,0-9.97,0-14.96,0-.23,0-.46.01-.69.02,0-.5,0-1,0-1.5Z"/>
    <path d="M9.32,86.87c.6-3.88,1.2-7.71,1.8-11.62h9.3c.47-3.71.92-7.35,1.39-11.06h-8.97c.41-2.67.81-5.28,1.22-7.92h9.19c.53-3.7,1.05-7.35,1.58-11.07h-9.04c.4-2.57.79-5.07,1.19-7.63.24,0,.45,0,.66,0,2.51,0,5.03,0,7.54,0,.44,0,.62-.09.67-.59.25-2.28.58-4.55.87-6.82.15-1.19.29-2.38.44-3.61h-8.46c.57-3.71,1.14-7.36,1.71-11.04h55.46c-3.79,23.79-7.57,47.55-11.36,71.35H9.32ZM32.44,30.17c.25.02.34.03.43.03,8.2,0,16.41,0,24.61,0,.16,0,.37-.02.48-.12.49-.4.96-.83,1.47-1.28-.1-.04-.14-.06-.17-.06-8.3,0-16.6,0-24.9,0-.14,0-.32.03-.42.12-.47.39-.92.8-1.5,1.31ZM30.57,38.19h.78c7.9,0,15.81-.03,23.71.03,1.25,0,1.75-.81,2.64-1.53h-.51c-8.15,0-16.31,0-24.46.01-.24,0-.52.11-.71.26-.46.34-.88.74-1.44,1.23ZM58.66,32.8c-.16-.03-.21-.04-.27-.04-8.26,0-16.53,0-24.79,0-.13,0-.3,0-.38.07-.48.4-.93.82-1.49,1.31.2.02.26.04.33.04,8.25,0,16.49,0,24.74,0,.18,0,.4-.05.53-.16.44-.36.85-.76,1.33-1.21Z"/>
    <path d="M25.78,28.3c-.31,2.35-.62,4.64-.9,6.93-.07.57-.27.78-.89.77-5.04-.07-10.08-.1-15.12-.14-.17,0-.34-.02-.57-.03.14-.94.27-1.85.4-2.75.22-1.44.44-2.87.65-4.31.05-.32.1-.52.51-.52,5.19,0,10.39,0,15.58,0,.09,0,.19.02.34.04Z"/>
    <path d="M23.25,46.96c-.38,2.52-.76,5.01-1.14,7.54H6.11c.13-.94.26-1.86.4-2.78.22-1.44.45-2.87.66-4.31.05-.34.14-.5.53-.49,5.04.01,10.09,0,15.13,0,.13,0,.26.03.43.04Z"/>
  </g>
</svg>